<?xml version="1.0" encoding="UTF-8" standalone="no"?>
<!DOCTYPE svg PUBLIC "-//W3C//DTD SVG 1.1//EN" "http://www.w3.org/Graphics/SVG/1.1/DTD/svg11.dtd">
<svg xmlns="http://www.w3.org/2000/svg" xmlns:xlink="http://www.w3.org/1999/xlink" version="1.1" width="60pt" height="60pt" viewBox="0 0 60 60">
<g enable-background="new">
<g>
<path transform="matrix(1,0,0,-1,0,60)" d="M 30 54 C 16.746 54 6 43.254 6 30 C 6 18.754 13.742 9.344 24.184 6.738 C 24.07 7.062 24 7.441 24 7.906 L 24 12.008 C 23.027 12.008 21.395 12.008 20.984 12.008 C 19.344 12.008 17.883 12.715 17.176 14.027 C 16.387 15.484 16.254 17.715 14.305 19.078 C 13.727 19.531 14.164 20.051 14.832 19.98 C 16.062 19.633 17.082 18.789 18.043 17.535 C 18.996 16.281 19.449 15.996 21.234 15.996 C 22.102 15.996 23.395 16.047 24.617 16.238 C 25.273 17.906 26.406 19.441 27.793 20.164 C 19.801 20.984 15.984 24.961 15.984 30.359 C 15.984 32.684 16.977 34.934 18.656 36.824 C 18.105 38.707 17.41 42.539 18.871 44 C 22.465 44 24.641 41.668 25.16 41.039 C 26.953 41.652 28.922 42 30.988 42 C 33.062 42 35.039 41.652 36.836 41.035 C 37.352 41.66 39.527 44 43.129 44 C 44.594 42.539 43.891 38.688 43.336 36.812 C 45.008 34.922 45.988 32.68 45.988 30.359 C 45.988 24.965 42.184 20.992 34.203 20.164 C 36.398 19.02 38 15.801 38 13.375 L 38 7.906 C 38 7.699 37.953 7.547 37.93 7.371 C 47.281 10.648 54 19.527 54 30 C 54 43.254 43.254 54 30 54 Z M 30 54 "/>
</g>
</g>
</svg>
