<?xml version="1.0" encoding="UTF-8" standalone="no"?>
<!DOCTYPE svg PUBLIC "-//W3C//DTD SVG 1.1//EN" "http://www.w3.org/Graphics/SVG/1.1/DTD/svg11.dtd">
<svg xmlns="http://www.w3.org/2000/svg" xmlns:xlink="http://www.w3.org/1999/xlink" version="1.1" width="60pt" height="60pt" viewBox="0 0 60 60">
<g enable-background="new">
<g>
<path transform="matrix(1,0,0,-1,0,60)" d="M 30 54 C 16.746 54 6 43.254 6 30 C 6 16.746 16.746 6 30 6 C 43.254 6 54 16.746 54 30 C 54 43.254 43.254 54 30 54 Z M 42.93 34.93 C 42.941 34.664 42.945 34.398 42.945 34.137 C 42.945 26 36.758 16.625 25.434 16.625 C 21.957 16.625 18.723 17.641 16 19.391 C 16.48 19.332 16.973 19.305 17.469 19.305 C 20.355 19.305 23.008 20.289 25.113 21.941 C 22.418 21.992 20.145 23.773 19.363 26.215 C 19.738 26.145 20.125 26.105 20.52 26.105 C 21.082 26.105 21.629 26.184 22.141 26.32 C 19.324 26.887 17.203 29.375 17.203 32.355 C 17.203 32.383 17.203 32.406 17.203 32.434 C 18.035 31.973 18.98 31.695 19.992 31.664 C 18.344 32.766 17.254 34.652 17.254 36.785 C 17.254 37.914 17.555 38.973 18.086 39.879 C 21.121 36.156 25.656 33.703 30.773 33.449 C 30.668 33.898 30.613 34.367 30.613 34.852 C 30.613 38.246 33.371 41.008 36.77 41.008 C 38.539 41.008 40.137 40.258 41.262 39.062 C 42.66 39.34 43.98 39.852 45.172 40.555 C 44.711 39.117 43.734 37.914 42.461 37.148 C 43.707 37.297 44.891 37.629 45.996 38.117 C 45.176 36.883 44.133 35.801 42.93 34.93 Z M 42.93 34.93 "/>
</g>
</g>
</svg>
